<?xml version="1.0" standalone="no"?>
<!DOCTYPE svg PUBLIC "-//W3C//DTD SVG 20010904//EN"
 "http://www.w3.org/TR/2001/REC-SVG-20010904/DTD/svg10.dtd">
<svg version="1.0" xmlns="http://www.w3.org/2000/svg"
 width="512.000000pt" height="512.000000pt" viewBox="0 0 512.000000 512.000000"
 preserveAspectRatio="xMidYMid meet">

<g transform="translate(0.000000,512.000000) scale(0.100000,-0.100000)"
fill="#000000" stroke="none">
<path d="M3820 5105 c-351 -56 -660 -285 -824 -612 -235 -470 -101 -1051 318
-1375 427 -330 1012 -313 1425 41 192 166 333 430 371 696 53 376 -108 776
-411 1018 -245 196 -567 281 -879 232z m268 -652 c58 -43 67 -66 70 -183 l4
-108 108 -4 c91 -2 113 -6 136 -24 53 -39 69 -71 69 -134 0 -63 -16 -95 -69
-134 -23 -18 -45 -22 -136 -24 l-108 -4 -4 -108 c-3 -117 -12 -140 -72 -184
-39 -29 -133 -29 -172 0 -60 44 -69 67 -72 184 l-4 108 -108 4 c-117 3 -140
12 -184 72 -29 39 -29 133 0 172 44 60 67 69 185 72 l109 4 0 93 c0 128 22
178 95 211 40 19 119 12 153 -13z"/>
<path d="M95 4466 c-94 -41 -124 -168 -58 -247 46 -55 70 -59 312 -59 131 0
231 -4 248 -11 39 -14 81 -56 93 -94 6 -17 131 -575 280 -1240 224 -1005 275
-1220 301 -1273 61 -124 189 -222 327 -251 71 -15 2495 -16 2573 -1 130 25
269 128 330 245 15 28 108 336 208 685 100 349 184 641 187 649 4 12 2 12 -15
0 -10 -8 -50 -35 -88 -61 -487 -331 -1116 -329 -1602 6 -310 213 -537 565
-599 928 l-17 98 -752 0 -753 0 -5 23 c-3 12 -19 83 -35 157 -17 78 -43 162
-61 199 -60 122 -189 221 -327 250 -78 16 -509 14 -547 -3z"/>
<path d="M1961 944 c-253 -68 -410 -331 -346 -579 67 -256 329 -415 580 -350
256 67 415 329 350 578 -67 259 -333 419 -584 351z"/>
<path d="M3561 944 c-253 -68 -410 -331 -346 -579 67 -256 329 -415 580 -350
256 67 415 329 350 578 -67 259 -333 419 -584 351z"/>
</g>
</svg>
