<?xml version="1.0" standalone="no"?>
<!DOCTYPE svg PUBLIC "-//W3C//DTD SVG 20010904//EN"
 "http://www.w3.org/TR/2001/REC-SVG-20010904/DTD/svg10.dtd">
<svg version="1.0" xmlns="http://www.w3.org/2000/svg"
 width="800.000000pt" height="600.000000pt" viewBox="0 0 800.000000 600.000000"
 preserveAspectRatio="xMidYMid meet">

<g transform="translate(0.000000,600.000000) scale(0.100000,-0.100000)"
fill="#000000" stroke="none">
<path d="M0 3000 l0 -3000 4000 0 4000 0 0 3000 0 3000 -4000 0 -4000 0 0
-3000z m3865 1793 c-13 -7 -25 -19 -28 -27 -5 -12 -13 -9 -37 16 -24 24 -28
33 -18 39 7 5 16 9 20 9 4 0 9 9 13 20 6 18 9 17 39 -13 l33 -32 -22 -12z
m-256 -372 c16 -12 34 -21 40 -21 22 0 10 -15 -26 -35 -21 -11 -47 -37 -59
-59 l-22 -39 -21 42 c-14 27 -34 48 -56 58 -19 9 -35 20 -35 23 0 3 16 14 35
23 22 10 42 31 56 59 l21 42 19 -36 c10 -20 32 -46 48 -57z m716 -161 c429
-91 803 -341 1041 -696 30 -45 54 -84 54 -88 0 -3 -169 -6 -375 -6 l-375 0 0
-770 0 -770 -177 0 c-164 -1 -175 -2 -139 -15 46 -16 109 -75 132 -123 20 -43
21 -136 2 -182 -22 -51 -62 -95 -111 -119 l-42 -21 45 0 c28 0 64 9 90 23 l45
22 45 -23 c43 -22 53 -23 246 -20 200 3 201 3 242 31 64 42 95 97 100 174 5
80 -14 136 -67 187 -21 20 -56 44 -77 51 -37 13 -33 14 87 15 112 0 127 2 131
18 111 406 332 1189 338 1195 10 11 45 -122 65 -243 22 -138 20 -380 -5 -524
-101 -595 -525 -1092 -1091 -1280 -201 -67 -288 -80 -529 -80 -183 0 -230 3
-315 22 -352 76 -624 227 -871 484 -397 412 -547 1008 -394 1565 28 102 28
103 -23 103 l-44 0 -36 134 c-21 73 -37 136 -37 140 0 3 67 6 148 6 l148 0 70
102 c118 176 319 368 499 478 161 99 385 184 565 214 52 9 106 18 120 20 14 3
108 3 210 1 139 -3 210 -9 285 -25z"/>
<path d="M2661 3158 c5 -18 9 -34 9 -35 0 -2 407 -3 905 -3 l905 0 0 35 0 35
-914 0 -915 0 10 -32z"/>
<path d="M3191 1902 c177 -92 162 -351 -23 -419 -33 -11 -33 -11 20 -12 35 -1
67 6 93 20 l41 21 48 -21 c44 -19 69 -21 236 -21 169 0 192 2 230 21 61 29
101 79 121 149 16 58 17 60 49 60 28 0 35 4 40 28 22 99 70 159 151 188 33 11
-35 13 -511 14 l-548 0 53 -28z"/>
</g>
</svg>
