<?xml version="1.0" standalone="no"?>
<!DOCTYPE svg PUBLIC "-//W3C//DTD SVG 20010904//EN"
 "http://www.w3.org/TR/2001/REC-SVG-20010904/DTD/svg10.dtd">
<svg version="1.0" xmlns="http://www.w3.org/2000/svg"
 width="2483.000000pt" height="1258.000000pt" viewBox="0 0 2483.000000 1258.000000"
 preserveAspectRatio="xMidYMid meet">

<g transform="translate(0.000000,1258.000000) scale(0.100000,-0.100000)"
fill="#FFFFFF" stroke="none">
<path d="M20 6290 l0 -6290 12395 0 12395 0 0 6290 0 6290 -12395 0 -12395 0
0 -6290z m12805 4675 c637 -56 1218 -219 1780 -502 1376 -691 2342 -1984 2619
-3504 56 -305 70 -476 70 -859 0 -388 -9 -510 -64 -838 -223 -1324 -999 -2507
-2135 -3257 -1308 -863 -2964 -1041 -4435 -478 -895 343 -1688 962 -2246 1753
-896 1270 -1132 2912 -630 4385 318 933 901 1738 1691 2336 300 227 697 456
1046 603 480 202 1023 330 1569 369 138 10 583 5 735 -8z"/>
<path d="M12040 10460 c-578 -54 -1091 -200 -1595 -455 -1670 -842 -2619
-2638 -2374 -4490 111 -839 465 -1630 1017 -2275 95 -111 333 -351 447 -450
353 -306 755 -557 1176 -735 402 -169 826 -276 1299 -327 173 -18 662 -15 848
5 425 48 785 136 1162 284 1308 515 2300 1644 2639 3003 85 338 120 610 128
971 6 288 -5 495 -42 744 -181 1225 -869 2312 -1900 3000 -577 386 -1175 609
-1885 706 -125 17 -219 21 -490 24 -184 2 -378 -1 -430 -5z m-771 -2751 c624
-621 1138 -1129 1141 -1129 3 0 517 509 1142 1130 l1136 1130 195 0 c184 0
195 -1 213 -21 19 -21 19 -81 22 -2643 2 -1441 0 -2641 -3 -2665 -5 -30 -16
-54 -35 -73 l-28 -28 -166 0 -166 0 -32 29 -33 29 -3 2344 -2 2343 -955 -955
-955 -955 276 -276 c152 -152 272 -279 267 -282 -5 -3 -63 -9 -128 -12 -276
-16 -514 49 -684 186 l-61 49 -61 -49 c-105 -85 -236 -143 -389 -173 -70 -13
-382 -17 -414 -5 -17 7 22 49 257 285 l277 277 -955 955 -955 955 0 -2328 c0
-2046 -2 -2331 -15 -2357 -29 -56 -44 -60 -221 -60 -183 0 -204 7 -224 78 -8
26 -10 826 -8 2673 3 2577 3 2637 22 2658 18 20 28 21 215 20 l196 0 1134
-1130z m1255 -2089 c72 -27 139 -88 173 -158 37 -75 40 -191 6 -263 -29 -64
-87 -125 -147 -157 -44 -23 -63 -27 -141 -27 -75 0 -98 4 -139 24 -60 30 -118
86 -147 143 -31 59 -38 177 -15 246 29 87 122 174 216 203 49 14 138 9 194
-11z"/>
</g>
</svg>
