<?xml version="1.0" standalone="no"?>
<!DOCTYPE svg PUBLIC "-//W3C//DTD SVG 20010904//EN"
 "http://www.w3.org/TR/2001/REC-SVG-20010904/DTD/svg10.dtd">
<svg version="1.0" xmlns="http://www.w3.org/2000/svg"
 width="800.000000pt" height="600.000000pt" viewBox="0 0 800.000000 600.000000"
 preserveAspectRatio="xMidYMid meet">

<g transform="translate(0.000000,600.000000) scale(0.100000,-0.100000)"
fill="#000000" stroke="none">
<path d="M4610 5666 c0 -8 5 -18 10 -21 6 -3 10 1 10 9 0 8 -4 18 -10 21 -5 3
-10 -1 -10 -9z"/>
<path d="M4633 5576 c3 -66 -17 -79 -71 -48 -22 12 -52 22 -67 22 -22 0 -26
-4 -23 -22 4 -28 41 -48 90 -48 30 0 42 -6 62 -33 29 -37 34 -88 12 -106 -11
-9 -23 -8 -53 4 -47 21 -117 23 -139 4 -23 -19 -33 -51 -22 -71 12 -25 83 -23
152 3 54 20 56 20 81 2 36 -26 39 -46 16 -99 -25 -55 -27 -87 -6 -104 12 -10
15 -10 15 2 0 8 -4 18 -9 24 -6 5 0 32 16 68 28 67 23 92 -21 122 -24 15 -25
18 -11 37 22 32 18 78 -10 119 -24 35 -24 36 -5 53 24 21 26 73 6 101 -13 17
-14 15 -13 -30z m-77 -67 c3 -5 -2 -9 -11 -9 -21 0 -55 18 -55 30 0 11 57 -8
66 -21z m23 -183 c23 -13 23 -13 -18 -29 -48 -20 -117 -22 -127 -5 -4 6 5 21
21 35 23 20 35 23 64 18 19 -4 46 -12 60 -19z"/>
<path d="M4608 4964 c-10 -3 -18 -11 -18 -18 0 -7 -19 -18 -42 -25 -75 -22
-255 -101 -271 -119 -31 -36 -30 -60 9 -142 20 -43 34 -85 30 -92 -4 -7 -24
-42 -44 -78 l-37 -65 -60 3 c-154 9 -239 -92 -254 -298 -6 -81 -8 -88 -46
-133 l-39 -47 -421 0 -422 0 -79 122 c-118 184 -142 206 -238 228 -56 12 -129
-1 -177 -34 l-33 -23 -39 28 c-93 67 -237 54 -314 -29 -14 -15 -52 -81 -85
-147 -33 -66 -67 -128 -76 -137 -13 -16 -35 -18 -174 -18 -87 0 -158 -3 -158
-6 0 -3 22 -83 50 -179 27 -96 50 -181 50 -190 0 -22 -204 -331 -323 -489 -53
-70 -97 -129 -97 -131 0 -6 230 -175 239 -175 6 0 44 30 85 66 l75 65 96 -72
96 -72 24 23 c14 13 27 22 29 19 2 -2 24 -71 48 -154 l43 -150 1140 -3 c626
-1 1142 -5 1146 -10 4 -4 10 -28 13 -54 l7 -48 -1145 0 c-630 0 -1147 -4
-1150 -8 -3 -5 25 -21 62 -36 827 -338 1261 -521 1255 -527 -4 -4 -148 -70
-319 -147 l-311 -141 -119 20 c-351 57 -493 42 -647 -71 -148 -109 -265 -333
-332 -637 -19 -86 -51 -126 -113 -142 -62 -17 -147 1 -338 70 -92 33 -192 65
-223 71 -107 20 -198 -7 -259 -77 -31 -34 -77 -114 -70 -120 3 -3 5566 -9
5583 -6 6 1 111 1 235 1 124 0 343 2 488 6 l264 7 -73 18 c-79 21 -151 51
-217 92 l-42 27 0 235 0 235 -320 0 -320 0 0 -120 c0 -73 -4 -120 -10 -120 -6
0 -10 88 -10 245 l0 245 -460 0 -460 0 0 -157 0 -156 -74 71 c-113 109 -143
119 -352 112 -136 -4 -204 39 -396 250 -138 152 -196 203 -276 242 -144 71
-305 41 -504 -93 l-56 -39 -92 38 c-50 21 -92 42 -93 46 -3 12 873 405 889
399 8 -3 25 6 39 21 13 14 33 26 44 26 10 0 58 -18 107 -40 67 -31 89 -38 96
-28 13 22 9 57 -12 98 -11 22 -20 42 -20 44 0 3 14 12 30 21 l30 16 0 883 c0
838 1 887 19 945 10 33 30 80 44 103 36 62 138 155 199 183 29 13 198 57 376
96 l323 73 23 -29 c63 -78 187 12 130 93 -38 54 -121 44 -142 -17 -6 -17 -14
-31 -17 -31 -35 0 -653 -147 -692 -165 l-52 -23 30 41 c58 80 71 184 34 274
-21 51 -91 119 -147 143 -50 21 -137 34 -170 24z m144 -34 c58 -21 124 -82
152 -138 59 -117 3 -272 -118 -328 -55 -26 -143 -32 -190 -14 -33 12 -33 26 1
42 41 20 51 43 32 77 -15 26 -15 29 3 54 11 15 40 39 64 53 58 34 71 57 49 90
-8 13 -22 24 -29 24 -37 0 -105 91 -106 143 0 24 73 23 142 -3z m11 -533 c-90
-95 -123 -180 -132 -337 l-6 -115 -48 -3 -48 -3 5 33 c31 181 33 238 10 335
-15 64 -15 70 2 101 12 23 22 31 33 26 37 -15 147 -15 186 0 22 8 42 15 44 15
2 1 -19 -23 -46 -52z m-368 12 c60 -17 95 -46 121 -103 32 -68 31 -119 -6
-374 -16 -114 -35 -259 -42 -322 -17 -156 -14 -652 5 -850 8 -85 13 -157 11
-159 -2 -2 -55 0 -118 4 l-115 7 -20 61 c-47 144 -88 343 -111 542 -28 232
-20 873 12 1005 37 155 134 225 263 189z m-316 -161 c-72 -90 -135 -164 -138
-166 -14 -5 10 152 30 197 40 90 96 131 182 131 l57 0 -131 -162z m32 -44 c-5
-27 -12 -96 -15 -153 -4 -58 -8 -106 -10 -108 -2 -2 -54 -2 -115 -1 l-112 3
127 158 c70 87 129 156 131 154 2 -2 -1 -26 -6 -53z m-2181 -285 c0 -7 -9 -27
-21 -45 l-21 -34 -113 0 -113 0 -10 40 c-5 21 -7 42 -4 45 11 11 282 5 282 -6z
m1990 -478 l0 -490 -37 -30 -38 -31 -3 507 c-1 280 0 514 3 521 2 6 20 12 40
12 l35 0 0 -489z m58 27 c2 -441 2 -456 -18 -479 -19 -24 -19 -23 -20 452 0
262 3 479 7 483 25 25 28 -20 31 -456z m102 49 l0 -413 -45 -44 -45 -44 0 450
c0 248 3 454 7 457 3 4 24 7 45 7 l38 0 0 -413z m548 -299 l2 -708 -45 0 -45
0 0 711 0 710 43 -3 42 -3 3 -707z m-1588 686 c0 -8 -4 -12 -10 -9 -5 3 -10
10 -10 16 0 5 5 9 10 9 6 0 10 -7 10 -16z m100 -74 c0 -49 -2 -90 -4 -90 -2 0
-20 25 -40 55 -24 37 -36 66 -36 90 0 34 1 35 40 35 l40 0 0 -90z m50 -42 c0
-118 -2 -130 -15 -112 -21 28 -22 244 0 244 13 0 15 -21 15 -132z m110 -78 c0
-115 -2 -210 -4 -210 -2 0 -22 28 -45 63 l-41 63 0 147 0 147 45 0 45 0 0
-210z m48 -2 c-2 -158 -6 -212 -15 -216 -10 -3 -13 44 -13 212 0 187 2 216 15
216 13 0 15 -28 13 -212z m112 43 l0 -169 -32 -24 c-18 -13 -39 -28 -45 -32
-10 -6 -13 36 -13 193 l0 201 45 0 45 0 0 -169z m50 21 c0 -142 -6 -172 -32
-172 -4 0 -8 72 -8 160 0 153 1 160 20 160 19 0 20 -7 20 -148z m100 46 l0
-102 -37 -38 c-20 -21 -41 -38 -45 -38 -4 0 -8 63 -8 140 l0 140 45 0 45 0 0
-102z m50 23 c0 -58 -4 -82 -15 -91 -13 -11 -15 -1 -15 79 0 74 3 91 15 91 12
0 15 -15 15 -79z m110 56 c0 -14 -18 -40 -45 -67 l-45 -44 0 67 0 67 45 0 c40
0 45 -2 45 -23z m35 -1036 c-13 -14 -15 40 -15 495 0 395 3 513 13 523 10 10
13 -90 15 -496 2 -441 0 -509 -13 -522z m-40 -18 c-4 -13 -64 -53 -77 -53 -5
0 -8 217 -8 482 l0 482 43 44 42 43 3 -493 c1 -271 0 -499 -3 -505z m755 340
c0 -355 -3 -644 -6 -640 -7 7 -8 22 -24 267 -12 207 -13 636 0 799 11 138 21
221 26 221 2 0 4 -291 4 -647z m-2650 622 c-9 -11 -34 -15 -100 -15 -69 0 -89
3 -94 15 -5 13 11 15 101 15 93 0 104 -2 93 -15z m-38 -67 c-11 -18 -36 -59
-55 -91 -19 -32 -37 -55 -40 -50 -5 9 -47 156 -47 166 0 4 36 7 81 7 l81 0
-20 -32z m1823 -965 c-2 -7 -9 -13 -15 -13 -16 0 -14 942 3 959 10 10 13 -83
15 -461 1 -260 0 -479 -3 -485z m-45 439 l0 -468 -35 -17 c-20 -9 -40 -17 -45
-17 -6 0 -10 166 -10 445 l0 446 43 39 c23 22 43 40 45 40 1 0 2 -211 2 -468z
m-105 -509 c-2 -7 -11 -13 -20 -13 -13 0 -15 51 -15 434 0 401 1 436 18 452
16 17 17 -3 20 -422 1 -241 0 -445 -3 -451z m-45 412 l0 -435 -22 -9 c-13 -5
-33 -11 -45 -15 l-23 -7 0 423 1 423 37 27 c20 15 40 27 45 28 4 0 7 -196 7
-435z m-115 -462 c-2 -7 -9 -13 -15 -13 -16 0 -14 827 3 833 9 3 13 -83 15
-402 1 -223 0 -412 -3 -418z m-872 555 c20 -36 37 -69 37 -72 0 -3 -54 -6
-121 -6 l-120 0 56 66 c31 37 63 77 72 91 18 28 17 30 76 -79z m1634 -65 c-3
-10 -5 -2 -5 17 0 19 2 27 5 18 2 -10 2 -26 0 -35z m-1573 -49 c3 -9 6 -18 6
-20 0 -2 -70 -4 -155 -4 -85 0 -155 4 -155 8 0 26 30 32 161 32 116 0 138 -2
143 -16z m1590 -40 c3 -26 6 -138 6 -250 0 -175 -2 -204 -15 -204 -13 0 -15
34 -15 250 0 234 9 311 24 204z m-44 -221 c0 -141 -4 -233 -9 -227 -17 18 -72
229 -78 302 l-6 73 44 45 c24 24 44 44 46 44 2 0 3 -107 3 -237z m-1477 150
c30 -43 86 -108 125 -145 l70 -68 -413 0 -413 0 -5 22 c-5 18 16 43 121 145
l127 123 167 0 166 0 55 -77z m1366 -96 c6 -35 11 -134 11 -220 0 -150 -1
-157 -20 -157 -19 0 -20 7 -20 220 0 123 4 220 9 220 5 0 14 -28 20 -63z m-49
-172 l0 -205 -40 0 -40 0 0 178 1 177 36 28 c20 15 38 27 40 27 1 0 3 -92 3
-205z m299 -68 c17 -43 14 -47 -29 -47 l-40 0 1 143 1 142 28 -105 c15 -58 33
-118 39 -133z m-399 28 c0 -140 -2 -165 -15 -165 -13 0 -15 24 -15 158 0 87 3
162 7 165 19 20 23 -7 23 -158z m-50 -15 l0 -150 -45 0 -45 0 0 124 0 125 43
25 c23 14 43 26 45 26 1 0 2 -67 2 -150z m260 3 c14 -48 26 -73 35 -73 11 0
15 -12 15 -40 l0 -40 -45 0 -45 0 1 133 c0 142 3 143 39 20z m-1176 72 c18
-13 -31 -15 -421 -15 -383 0 -442 2 -447 15 -8 22 839 22 868 0z m806 -110 c0
-96 -3 -115 -15 -115 -12 0 -15 19 -15 108 0 60 3 112 7 115 18 19 23 -3 23
-108z m-50 -10 l0 -105 -45 0 -45 0 0 85 0 86 43 19 c23 10 43 19 45 19 1 1 2
-46 2 -104z m-662 65 l42 -19 0 -76 0 -75 -470 0 -469 0 -20 68 c-11 37 -23
79 -27 95 l-6 27 453 0 c427 0 457 -2 497 -20z m562 -90 c0 -73 -2 -80 -20
-80 -18 0 -20 7 -20 73 0 76 4 87 27 87 10 0 13 -20 13 -80z m-472 -13 c3 -62
1 -67 -18 -67 -18 0 -20 6 -20 71 0 62 2 70 18 67 14 -3 18 -16 20 -71z m422
3 l0 -70 -45 0 -46 0 3 62 c3 57 5 63 28 69 58 16 60 15 60 -61z m-320 -16 l0
-54 -40 0 -40 0 0 64 0 64 40 -10 40 -10 0 -54z m210 6 c0 -47 -3 -60 -15 -60
-11 0 -15 13 -15 54 0 48 4 58 28 65 1 1 2 -26 2 -59z m-160 -5 c0 -42 -3 -55
-15 -55 -11 0 -15 12 -15 48 0 27 3 52 7 55 16 17 23 3 23 -48z m110 0 l0 -55
-45 0 -45 0 0 49 0 50 38 4 c20 2 40 4 45 5 4 1 7 -23 7 -53z m807 -37 c-2
-13 -4 -5 -4 17 -1 22 1 32 4 23 2 -10 2 -28 0 -40z m183 25 c0 -29 -2 -29
-19 5 -10 18 -9 22 4 22 10 0 15 -9 15 -27z m27 -25 c-2 -13 -4 -5 -4 17 -1
22 1 32 4 23 2 -10 2 -28 0 -40z m313 -93 l0 -55 -38 0 -38 0 -10 55 -10 55
48 0 48 0 0 -55z m-482 -112 c14 -29 30 -42 82 -66 l65 -29 -30 -13 c-16 -8
-214 -97 -439 -199 -225 -102 -416 -186 -423 -186 -10 0 -641 257 -1278 520
-11 5 436 9 993 9 l1012 1 18 -37z m232 -3 c24 -46 24 -50 7 -50 -7 0 -23 20
-35 45 -18 36 -19 45 -7 45 8 0 24 -18 35 -40z m-855 -566 l87 -37 -23 -19
c-13 -10 -78 -45 -144 -78 -128 -64 -255 -102 -384 -115 -83 -8 -287 3 -274
15 4 5 143 69 308 144 192 87 308 134 321 131 12 -2 61 -21 109 -41z m2185
-694 l0 -420 -200 0 -200 0 0 420 0 420 200 0 200 0 0 -420z m480 0 l0 -420
-200 0 -200 0 0 420 0 420 200 0 200 0 0 -420z m660 35 l0 -135 -300 0 -300 0
0 135 0 135 300 0 300 0 0 -135z m0 -320 l0 -135 -300 0 -300 0 0 135 0 135
300 0 300 0 0 -135z"/>
<path d="M5940 1380 l0 -50 101 0 c100 0 101 0 95 23 -3 12 -6 34 -6 50 l0 27
-95 0 -95 0 0 -50z"/>
<path d="M6280 725 c0 -43 1 -45 30 -45 29 0 30 2 30 45 0 43 -1 45 -30 45
-29 0 -30 -2 -30 -45z"/>
<path d="M1235 2833 c-59 -63 -62 -65 -164 -94 -128 -37 -190 -62 -261 -108
l-55 -35 45 -7 c25 -4 112 -8 193 -8 141 -1 150 0 180 23 45 33 140 79 219
105 36 12 69 28 72 36 5 13 -31 47 -129 121 l-40 31 -60 -64z"/>
<path d="M1630 2798 c-54 -57 -58 -59 -174 -94 -112 -33 -208 -74 -257 -108
-19 -13 -15 -15 53 -20 40 -3 182 -8 314 -11 188 -4 244 -2 252 7 6 7 14 48
19 90 l9 77 -70 54 c-39 29 -75 56 -81 58 -5 3 -35 -21 -65 -53z"/>
<path d="M5600 1953 l0 -137 -38 37 c-21 20 -42 37 -48 37 -13 0 -264 -252
-264 -266 0 -12 72 -84 85 -84 5 0 33 23 61 51 46 45 51 48 47 25 -8 -42 5
-75 38 -92 37 -18 70 -12 99 18 l20 22 0 -22 0 -22 420 0 420 0 0 285 0 285
-420 0 -420 0 0 -137z m170 -148 l0 -265 -75 0 -75 0 0 265 0 265 75 0 75 0 0
-265z m650 0 l0 -265 -315 0 -315 0 0 265 0 265 315 0 315 0 0 -265z m-868 28
l28 -27 -122 -123 -122 -123 -33 32 -33 32 117 118 c65 65 122 118 127 118 6
0 23 -12 38 -27z m48 -125 c-1 -70 -3 -80 -14 -66 -20 27 -62 39 -93 27 -22
-8 -14 4 37 55 35 37 66 66 67 66 2 0 3 -37 3 -82z"/>
<path d="M5856 2011 c-7 -10 53 -23 104 -22 19 1 51 1 70 0 19 0 46 0 60 0 14
-1 43 3 65 8 35 8 37 10 18 17 -14 4 -34 1 -53 -9 -29 -15 -34 -15 -55 -1 -30
20 -48 20 -83 2 -23 -12 -31 -12 -52 0 -29 15 -66 18 -74 5z"/>
<path d="M5860 1969 c-12 -9 -10 -10 9 -5 13 3 37 -2 53 -10 24 -12 35 -13 63
-3 27 10 42 10 73 0 32 -11 44 -11 68 1 16 8 37 13 48 10 11 -2 16 0 12 7 -10
15 -32 14 -67 -5 -28 -14 -33 -14 -54 0 -14 9 -31 16 -40 16 -9 0 -30 -7 -46
-16 -28 -14 -33 -14 -54 0 -28 19 -44 20 -65 5z"/>
<path d="M5854 1929 c-4 -7 1 -9 12 -7 11 3 32 -2 48 -10 23 -11 36 -12 72 -2
32 9 51 9 74 1 25 -8 39 -7 66 4 19 8 42 11 52 8 14 -5 15 -3 4 8 -10 10 -18
11 -45 1 -41 -15 -74 -15 -82 -2 -9 14 -51 13 -75 -2 -15 -10 -26 -10 -53 0
-41 15 -64 15 -73 1z"/>
<path d="M5854 1889 c-4 -7 0 -9 14 -5 12 4 34 0 51 -8 25 -13 35 -14 68 -2
31 11 43 11 70 0 27 -12 37 -11 67 1 19 8 43 12 53 8 15 -5 16 -3 5 8 -10 10
-18 11 -45 1 -41 -15 -74 -15 -82 -2 -3 6 -19 10 -35 10 -16 0 -32 -4 -35 -10
-3 -5 -19 -10 -35 -10 -16 0 -32 5 -35 10 -8 14 -52 13 -61 -1z"/>
<path d="M487 574 c-4 -4 -4 -11 -1 -15 3 -5 1574 -9 3535 -9 2820 0 3530 3
3527 12 -4 10 -720 14 -3530 16 -1938 1 -3528 -1 -3531 -4z"/>
</g>
</svg>
